<?xml version="1.0" encoding="UTF-8"?>
<svg id="Warstwa_1" xmlns="http://www.w3.org/2000/svg" viewBox="0 0 581.92 495.25">
  <defs>
    <style>
      .cls-1 {
        stroke: #1f1f1f;
        stroke-miterlimit: 10;
        stroke-width: 6px;
        fill: #1f1f1f;
       
      }
    </style>
  </defs>
  <path class="cls-1" d="M528.45,371.29l49.23,49.2c-21.9,22.31-47.86,39.87-77.89,52.61-30.1,12.74-62.5,19.12-95.33,19.12-.51,0,.51.03,0,0h0l-331.76-.33h0l-69.7.34V3h69.7s0,421.04,0,421.04l163.41.31c-16.36-15.61-30.41-33.55-42.09-53.74-21.66-37.34-32.46-78.13-32.46-122.31s10.8-85.07,32.46-122.65c21.63-37.58,51.25-67.41,88.83-89.51C320.42,14.04,361.28,3,405.46,3c32.83,0,64.13,6.49,93.95,19.47,29.86,12.98,55.93,30.65,78.27,52.95l-49.23,49.2c-16.4-16.4-35.19-29.14-56.37-38.26-21.18-9.12-43.39-13.67-66.62-13.67-31.88,0-61.12,7.86-87.8,23.57-26.65,15.72-47.69,37-63.2,63.89-15.48,26.89-23.23,56.27-23.23,88.14s7.76,60.47,23.23,87.12c15.51,26.65,36.56,47.83,63.2,63.55,26.68,15.72,55.93,23.57,87.8,23.57,23.23,0,45.58-4.54,67-13.67,21.39-9.12,40.07-21.63,56-37.58Z"/>
</svg>